<mxfile host="app.diagrams.net" modified="2021-11-16T11:29:25.901Z" agent="5.0 (Macintosh; Intel Mac OS X 10_15_7) AppleWebKit/537.36 (KHTML, like Gecko) Chrome/95.0.4638.69 Safari/537.36" etag="-jGGoVz0_JDL91EgAVZK" version="15.7.4" type="github">
  <diagram id="nhOvupoI7fVWtUY20aSN" name="Page-1">
    <mxGraphModel dx="1186" dy="698" grid="0" gridSize="10" guides="1" tooltips="1" connect="1" arrows="1" fold="1" page="1" pageScale="1" pageWidth="1169" pageHeight="827" background="#f8f8f8" math="0" shadow="0">
      <root>
        <mxCell id="0" />
        <mxCell id="1" parent="0" />
        <mxCell id="xtpNrOkgLzYpHderiMOa-4" value="" style="group" vertex="1" connectable="0" parent="1">
          <mxGeometry x="70" y="110" width="200" height="60" as="geometry" />
        </mxCell>
        <mxCell id="xtpNrOkgLzYpHderiMOa-1" value="" style="shape=image;verticalLabelPosition=bottom;labelBackgroundColor=#ffffff;verticalAlign=top;aspect=fixed;imageAspect=0;image=data:image/png,iVBORw0KGgoAAAANSUhEUgAAAEoAAABJCAYAAACaRLDfAAAACXBIWXMAAAsTAAALEwEAmpwYAAAAAXNSR0IArs4c6QAAAARnQU1BAACxjwv8YQUAAARLSURBVHgB7ZtLTiJBGIB/2laiiUm7cmUkMdHEFWhwK55guIHODeYGNHOAeZwA5gTjXMDHVjGgG6MLwY0LN6ALn0jN//dQTEN4NHR3VVfDl7TV9COhPv4q/6qujoAiFAqFNBY5xlgNy5/JZPIHTGinWCzu4sYeHx/Z6+sru7i4YGdnZxmY8B8u6enpiXEmsjroJmkiq4N+kiaymjiRNPayhpE0trJGkTR2stxIGhtZXkgKvSwvJYVWlh+SQifLT0mhkSVCkvKyREpSVpYMScrJkilJGVlBkBR4WUGSxAmcrCBK4gRGVpAlcYaRFTk5OYlrmvYd941Go/F5a2urBC4hSVjk19bWYHZ2FoLM29sbXF1dwfv7u7m5uZnteSHaLNOkfbVaZVjBKokDF6gQSZ04iSwNr4vNz8+DYRiwurpqTE9PH44qS6VIsjMzMwP0nbHuZi9Zmv3D3Nwcl1VsVtoxqkriDJKldR5oyqLdvFNZqkvi9JOldbuBZK2vr8PU1NRAWWGRxOklSxt0Qz9ZYZPEscs6PT39Qsc0Jzd0kxVWSRxed13XM1hXQ3d6A+YaeQzF2MfHxx8U9wlPmWGVxMGMgAqD/gwURXBZd3d3JuZHZjQahaWlJet4WMHcCq6vr6Fer2eTyWTNkSiCpMRiMfCaWq0G+/v78PDwYO0vLy9DPB63NllwSViSJNM6WCgUmAzK5TJLpVIU2103/FHY3t4eE83Ly4uVpWMnbtrlOY4oL6lUKrCzs2OV/a6hCBNJ10hqIlxUN0kYWZBOp619/A8Dx8fH1vnd3aEGB67oJ8lCdNPDyrc1sUwm0/W6XC7HRNGruUkVRX0P2Poh2TiSBAMSTq85Ojpqa3KmaYJMBjY3G0JFdXbelArIYhhJhFBRt7e3bZ/9yMucMKwkQqioIDCKJEKoqM6mFqQ8aRBCRXU2tfPzcxCFG0mEUFE0fqO5eU4+nwcRuJVECBVFkhKJROszpQvZbNaazmD/pjRaULPsN8RxiheSiAglnPg8C0RBld/Y2AB8PNY6RpG2vb0NCwsL1vlSqWRtFHFuhjFeSbKQMXtAw5NIJNJz5oBvKIqNitOM2ylS0gOcPoGbmxtrcIzCWpsd6vhHTUg9jaQmUqZZCBJxcHDQamo8VaB+jJriqMmoH5IIaaI4JMSrDN0vSURoMnM/JRGhEOW3JEJ5USIkEUqLEiWJUFaUSEmEkqJESyKUEyVDEqGUKFmSCGVEyZREKCPq/v6eVu7mZUgilBH1/PwMjUbjF0hCGVHNdVgpkIQyohYXFyEajWaGXa3sFcqIcrKm1E+USg9kylIu4eSyYIh18F6g5BCGZPGXBnBOPAUCUHZQzN+w0HX9t9sXnZyg9DSL7d2dQ79lKT9xR7JWVlYMTdMOwUdIVJXGUSrTXO9ugI/o+Kzw6+Xl5Tds6xAAIjAC9XqdHslnwUesL0bveoDPv4jfJBKJCvjIX3lmPhxsx5WYAAAAAElFTkSuQmCC;" vertex="1" parent="xtpNrOkgLzYpHderiMOa-4">
          <mxGeometry x="130.68425196850396" width="53.72574803149607" height="52.999724409448824" as="geometry" />
        </mxCell>
        <mxCell id="xtpNrOkgLzYpHderiMOa-2" value="" style="shape=image;verticalLabelPosition=bottom;labelBackgroundColor=#ffffff;verticalAlign=top;aspect=fixed;imageAspect=0;image=data:image/png,iVBORw0KGgoAAAANSUhEUgAAAEoAAABJCAYAAACaRLDfAAAACXBIWXMAAAsTAAALEwEAmpwYAAAAAXNSR0IArs4c6QAAAARnQU1BAACxjwv8YQUAAAQ6SURBVHgB7ZvPTuJAHMd/VJRoYsLNkwmJiSaeNAavoi+wvMG6T+C+AWUfYNl9Atgn2PAEeBYU9GL0AicPXiAe/It259vtsKXLn0I7nU7hk4zTFprQj7+Z/mY6jZEi1Gq1LKuKhmF0WP0znU7/oDn91Ov1z6wYDw8PxsvLi3F1dWWcn5/naM4/uKTHx0eDM5flYJCkuSwHoyTNZVm4kTTzsiaRNLOyppE0c7K8SJoZWX5IirwsPyVFVpYISZGTJVJSZGQFIUl5WUFKUlaWDEnKyZIpSRlZYZAUellhksQJnawwSuKERlaYJXEmkRU7Ozvb0TStwLaTHx8fX/b39xvkEUhiVWlra4uWl5cpzLy+vtLNzQ29vb3pe3t7+aFfZDabmLRvt9sGu8A2xJEHVIgkJ24iS2PfS62urlIymaTNzc3k4uJiZVpZKkWSnaWlJcJvZteuD5Ol2XdWVla4rLp10a5RVRJnnCzNecCShc2SW1mqS+KMkqUNOgGytre3aWFhYaysqEjiDJOljTthlKyoSeLYZVWr1a84prk5YZCsqEri8GuPx+M5dq3JuNsTWK5RYqGYen9/LzNxn9hHelQlcVhGgCqJP2NFAS7r7u5OZ/mRnkgkaH193TweVVhuRbe3t9TtdvPpdLrjShSAlFQqRV5otVpmGQTyuJ0dT7mub3BJrIYk3TxYq9WMoDg+PkYsjyyZTMYolUqGLJ6fn80snXXiul2e64gKitPTU7N0Oh06OTmhIBkYSRbSRKGpZbNZcxtSGo1GX7PUdT1QUaMkmchqeqy/++9zNDuyNcNms2kEwbDmZmdkHhU0TFTfPqJONGMjySI0otD8WCfe28cdULQot5KAtD4KYg4PD3vb6J9Qc3I5sTO0k0gCUkXh7uYEuVqxWPyvGfrJpJKA1KYXi8X6CkBkIdLy+TyJYBpJQJooRA6bo++Vi4uLvswc6cGgiPPCtJJAaDpzSCoUCn3HLi8vyS+8SAKhSg+cdzl75+4Fr5KA1CGM8Xcao0e5XO7b9zoIB35IAlLvekdHR719DGHsEYToOjg4IC/4JQmELj3goL/yElF+SgKB9lHOdMBZEEXInyqVCrFxIU2L35LM345BMXuUTEGAKBrVQYepT3ISaNNDxIgcv4mSBEKVHnhBpCQQCVGiJQHlRQUhCSgtKihJQFlRQUoCSooKWhJQTpQMSUApUbIkAWVEyZQElBF1f3+PlbslGZKAMqKenp4wZfyLJKGMKGsdVoYkoYyotbU1SiQSuUlXK/uFMqLcrCkViVLpgUxZyiWcXBZNsA7eD5QcwkAWf2mgWq1mKACUHRTzNyzi8fhvry86uUHpaRbbuzsV0bKUn7iDrI2NjaSmaRUSCES1MY5SGWu9u9BVZ3H2WPvb9fX1d9bWKQTEaAq63S4ez4tZJ2Rh/jC860GC/yOi2d3dbZFA/gCruIgQQ8W2KQAAAABJRU5ErkJggg==;" vertex="1" parent="xtpNrOkgLzYpHderiMOa-4">
          <mxGeometry x="65.34212598425198" width="53.72574803149607" height="52.999724409448824" as="geometry" />
        </mxCell>
        <mxCell id="xtpNrOkgLzYpHderiMOa-3" value="" style="shape=image;verticalLabelPosition=bottom;labelBackgroundColor=#ffffff;verticalAlign=top;aspect=fixed;imageAspect=0;image=data:image/png,iVBORw0KGgoAAAANSUhEUgAAAEoAAABJCAYAAACaRLDfAAAACXBIWXMAAAsTAAALEwEAmpwYAAAAAXNSR0IArs4c6QAAAARnQU1BAACxjwv8YQUAAARvSURBVHgB7ZvNTupAFIAPtUo0MenOlQmJiSaurjG4lTcAn+DKE3jfQLgPcK88AfAEyBOgW8Vw48boBlYuXAi68BftndN06oD8tLQz0yl8Se0wTBP6ec4wM0xjoAj1ej1DTkXTNDvkXEgmk0cwo5dGo/GTHObj46P5+vpqXl5emhcXF4cw4wsq6enpyaTMZPUxSNJMVh+jJM1k2biRNPWyvEiaWlmTSJo6WX4kTY2sICRFXlaQkiIri4ekyMniKSkyskRIUl6WSEnKypIhSTlZMiUpIysMkkIvK0ySKKGTFUZJlNDICrMkihdZsbOzsx+apv0lZePz8zO7s7PzD3yCksiptLGxAYuLixBm3t7e4Pr6Gt7f33Pb29v5oQ2JzSYu2rfbbZPcYBvFgQ9UiKR+3ESWRtollpeXwTAMWF9fN+bn52uTylIpklgWFhYAPzO599wwWRr7Ymlpicpq2DftGlUlUcbJ0vorbFlYLLmVpbokyihZ2qALUNbm5ibMzc2NlRUVSZRhsrRxF4ySFTVJFFbW+fn5L6zT3FwwSFZUJVHoveu6fkju1dDdXkDGGiUSiomPj48qEZcmb+WiKolCRgR4MvDPWFEIlXV7e5sj46NcPB6H1dVVqz6qkLEV3NzcQLfbzSeTyY4rUQhKSSQSEBStVgtOTk566jKZjDWekw2VRM4oKYd1rkUFDUrKZrM9dQ8PD3BwcAAyGSQJ0UAS5XL5W93x8THIZJgki3q9boqm2WxiL2kdJJ1Nkm7Oa5xzyuDl5cWa75HhQG6QRCkRVa1WnXIqlbL6JkqhUADRjIwkGymijo6+tl+iqN3dXed1fwfPGzeSLESnHi7BgJ1meGAaYrqxddhGBOPSjUV4RPVHEw45cEiAZQqbmrxwHUk2wkWdnp465f39fafM9lOlUgl44lWShcjUq9Vq39KOLD9bx/39fc972JYHXtKNReiAk40UTLd8vneJGus6nY5VxvRj0zEIJookisiIwjETMFEz6sCxVZBMGkkUYX0URgjO7yixWOzbwYKRFdRQwVck2QhLvUql4pTxm65YLA5st7e356QfTnP8pl8QkixEpB6Ok9hpCvm2G9oW3wMm/fxMafymG4uQ1MPJLo0SJJ1OD23LDhP8pF9gkUQREVHk5k3SBznHqCjpjz6SeqZXgowkSgxFkZ+SgSdsJ46MWwD02p4l8EiyEdKZe10ZnXQllZckRNrCXdDwlIREQhRvSYjyokRIQpQWJUoSoqwokZIQJUWJloQoJ0qGJEQpUbIkIcqIkikJUUbU3d0d7twtyZCEKCPq+fkZyNp6GSShjCh7H1YKJKGMqJWVFYjH44dedysHhTKi3Owp5YlSwwOZspQbcFJZ4GEffBAoOYVBWfShAbLcmwIBKDsppk9Y6Lpe8fugkxuUXmZhnt2p8Zal/MIdylpbWzM0TasBR1BUG+dRKmPvd+e671onP4P9vrq6+kNyHUJADCag2+3iUwZ54Ij1wfBZD+D8H+HN1tZWCzjyHwqLimQLEPDVAAAAAElFTkSuQmCC;" vertex="1" parent="xtpNrOkgLzYpHderiMOa-4">
          <mxGeometry width="53.72574803149607" height="52.999724409448824" as="geometry" />
        </mxCell>
        <mxCell id="xtpNrOkgLzYpHderiMOa-7" value="" style="rounded=1;whiteSpace=wrap;html=1;fillColor=none;strokeColor=#CCCCCC;" vertex="1" parent="xtpNrOkgLzYpHderiMOa-4">
          <mxGeometry x="-20" y="-10" width="221" height="74" as="geometry" />
        </mxCell>
        <mxCell id="xtpNrOkgLzYpHderiMOa-5" value="&lt;font&gt;&amp;nbsp; insert&amp;nbsp;&amp;nbsp;&lt;/font&gt;" style="endArrow=classic;html=1;rounded=0;strokeColor=#006633;strokeWidth=2;endSize=0;fontColor=#006076;labelBackgroundColor=#f8f8f8;" edge="1" parent="1">
          <mxGeometry width="50" height="50" relative="1" as="geometry">
            <mxPoint x="290" y="136" as="sourcePoint" />
            <mxPoint x="360" y="136" as="targetPoint" />
          </mxGeometry>
        </mxCell>
        <mxCell id="xtpNrOkgLzYpHderiMOa-17" value="" style="group" vertex="1" connectable="0" parent="1">
          <mxGeometry x="367" y="106" width="192" height="61" as="geometry" />
        </mxCell>
        <mxCell id="xtpNrOkgLzYpHderiMOa-12" value="" style="group;container=1;" vertex="1" connectable="0" parent="xtpNrOkgLzYpHderiMOa-17">
          <mxGeometry width="150" height="35" as="geometry" />
        </mxCell>
        <mxCell id="xtpNrOkgLzYpHderiMOa-13" value="" style="group" vertex="1" connectable="0" parent="xtpNrOkgLzYpHderiMOa-12">
          <mxGeometry width="150" height="35" as="geometry" />
        </mxCell>
        <mxCell id="xtpNrOkgLzYpHderiMOa-11" value="" style="rounded=1;whiteSpace=wrap;html=1;fillColor=default;strokeColor=#CCCCCC;" vertex="1" parent="xtpNrOkgLzYpHderiMOa-13">
          <mxGeometry width="150" height="35" as="geometry" />
        </mxCell>
        <mxCell id="xtpNrOkgLzYpHderiMOa-8" value="" style="sketch=0;html=1;dashed=0;whitespace=wrap;fillColor=#2875E2;strokeColor=#ffffff;points=[[0.005,0.63,0],[0.1,0.2,0],[0.9,0.2,0],[0.5,0,0],[0.995,0.63,0],[0.72,0.99,0],[0.5,1,0],[0.28,0.99,0]];shape=mxgraph.kubernetes.icon;prIcon=pod;fontColor=#006600;" vertex="1" parent="xtpNrOkgLzYpHderiMOa-13">
          <mxGeometry x="13" y="7" width="20.83" height="20" as="geometry" />
        </mxCell>
        <mxCell id="xtpNrOkgLzYpHderiMOa-9" value="&lt;b&gt;&lt;font color=&quot;#000000&quot;&gt;Vald LB Gateway&lt;/font&gt;&lt;/b&gt;" style="text;html=1;align=center;verticalAlign=middle;resizable=0;points=[];autosize=1;strokeColor=none;fillColor=none;fontColor=#006600;" vertex="1" parent="xtpNrOkgLzYpHderiMOa-17">
          <mxGeometry x="31" y="8" width="110" height="20" as="geometry" />
        </mxCell>
        <mxCell id="xtpNrOkgLzYpHderiMOa-18" value="" style="group" vertex="1" connectable="0" parent="xtpNrOkgLzYpHderiMOa-17">
          <mxGeometry x="19" y="13" width="173" height="48" as="geometry" />
        </mxCell>
        <mxCell id="xtpNrOkgLzYpHderiMOa-19" value="" style="group;container=1;" vertex="1" connectable="0" parent="xtpNrOkgLzYpHderiMOa-18">
          <mxGeometry width="150" height="35" as="geometry" />
        </mxCell>
        <mxCell id="xtpNrOkgLzYpHderiMOa-20" value="" style="group" vertex="1" connectable="0" parent="xtpNrOkgLzYpHderiMOa-19">
          <mxGeometry width="150" height="35" as="geometry" />
        </mxCell>
        <mxCell id="xtpNrOkgLzYpHderiMOa-21" value="" style="rounded=1;whiteSpace=wrap;html=1;fillColor=default;strokeColor=#CCCCCC;" vertex="1" parent="xtpNrOkgLzYpHderiMOa-20">
          <mxGeometry width="150" height="35" as="geometry" />
        </mxCell>
        <mxCell id="xtpNrOkgLzYpHderiMOa-22" value="" style="sketch=0;html=1;dashed=0;whitespace=wrap;fillColor=#2875E2;strokeColor=#ffffff;points=[[0.005,0.63,0],[0.1,0.2,0],[0.9,0.2,0],[0.5,0,0],[0.995,0.63,0],[0.72,0.99,0],[0.5,1,0],[0.28,0.99,0]];shape=mxgraph.kubernetes.icon;prIcon=pod;fontColor=#006600;" vertex="1" parent="xtpNrOkgLzYpHderiMOa-20">
          <mxGeometry x="13" y="7" width="20.83" height="20" as="geometry" />
        </mxCell>
        <mxCell id="xtpNrOkgLzYpHderiMOa-23" value="&lt;b&gt;&lt;font color=&quot;#000000&quot;&gt;Vald LB Gateway&lt;/font&gt;&lt;/b&gt;" style="text;html=1;align=center;verticalAlign=middle;resizable=0;points=[];autosize=1;strokeColor=none;fillColor=none;fontColor=#006600;" vertex="1" parent="xtpNrOkgLzYpHderiMOa-18">
          <mxGeometry x="31" y="8" width="110" height="20" as="geometry" />
        </mxCell>
        <mxCell id="xtpNrOkgLzYpHderiMOa-24" value="" style="group" vertex="1" connectable="0" parent="xtpNrOkgLzYpHderiMOa-18">
          <mxGeometry x="23" y="13" width="150" height="35" as="geometry" />
        </mxCell>
        <mxCell id="xtpNrOkgLzYpHderiMOa-25" value="" style="group;container=1;" vertex="1" connectable="0" parent="xtpNrOkgLzYpHderiMOa-24">
          <mxGeometry width="150" height="35" as="geometry" />
        </mxCell>
        <mxCell id="xtpNrOkgLzYpHderiMOa-26" value="" style="group" vertex="1" connectable="0" parent="xtpNrOkgLzYpHderiMOa-25">
          <mxGeometry width="150" height="35" as="geometry" />
        </mxCell>
        <mxCell id="xtpNrOkgLzYpHderiMOa-27" value="" style="rounded=1;whiteSpace=wrap;html=1;fillColor=default;strokeColor=#CCCCCC;" vertex="1" parent="xtpNrOkgLzYpHderiMOa-26">
          <mxGeometry width="150" height="35" as="geometry" />
        </mxCell>
        <mxCell id="xtpNrOkgLzYpHderiMOa-28" value="" style="sketch=0;html=1;dashed=0;whitespace=wrap;fillColor=#2875E2;strokeColor=#ffffff;points=[[0.005,0.63,0],[0.1,0.2,0],[0.9,0.2,0],[0.5,0,0],[0.995,0.63,0],[0.72,0.99,0],[0.5,1,0],[0.28,0.99,0]];shape=mxgraph.kubernetes.icon;prIcon=pod;fontColor=#006600;" vertex="1" parent="xtpNrOkgLzYpHderiMOa-26">
          <mxGeometry x="13" y="7" width="20.83" height="20" as="geometry" />
        </mxCell>
        <mxCell id="xtpNrOkgLzYpHderiMOa-29" value="&lt;b&gt;&lt;font color=&quot;#000000&quot;&gt;Vald LB Gateway&lt;/font&gt;&lt;/b&gt;" style="text;html=1;align=center;verticalAlign=middle;resizable=0;points=[];autosize=1;strokeColor=none;fillColor=none;fontColor=#006600;" vertex="1" parent="xtpNrOkgLzYpHderiMOa-24">
          <mxGeometry x="31" y="8" width="110" height="20" as="geometry" />
        </mxCell>
        <mxCell id="xtpNrOkgLzYpHderiMOa-30" value="&lt;font&gt;&amp;nbsp; insert&amp;nbsp;&amp;nbsp;&lt;/font&gt;" style="endArrow=classic;html=1;rounded=0;strokeColor=#006633;strokeWidth=2;endSize=0;fontColor=#006076;labelBackgroundColor=#f8f8f8;" edge="1" parent="1">
          <mxGeometry width="50" height="50" relative="1" as="geometry">
            <mxPoint x="590" y="136.21" as="sourcePoint" />
            <mxPoint x="660" y="136.21" as="targetPoint" />
          </mxGeometry>
        </mxCell>
        <mxCell id="xtpNrOkgLzYpHderiMOa-31" value="&lt;font&gt;&amp;nbsp; insert&amp;nbsp;&amp;nbsp;&lt;/font&gt;" style="endArrow=classic;html=1;rounded=0;strokeColor=#006633;strokeWidth=2;endSize=0;fontColor=#006076;labelBackgroundColor=#F8F8F8;" edge="1" parent="1">
          <mxGeometry width="50" height="50" relative="1" as="geometry">
            <mxPoint x="591" y="225.00000000000006" as="sourcePoint" />
            <mxPoint x="661" y="225.00000000000006" as="targetPoint" />
          </mxGeometry>
        </mxCell>
        <mxCell id="xtpNrOkgLzYpHderiMOa-32" value="&lt;font&gt;&amp;nbsp; insert&amp;nbsp;&amp;nbsp;&lt;/font&gt;" style="endArrow=classic;html=1;rounded=0;strokeColor=#006633;strokeWidth=2;endSize=0;fontColor=#006076;labelBackgroundColor=#F8F8F8;" edge="1" parent="1">
          <mxGeometry width="50" height="50" relative="1" as="geometry">
            <mxPoint x="592" y="305" as="sourcePoint" />
            <mxPoint x="662" y="305" as="targetPoint" />
          </mxGeometry>
        </mxCell>
        <mxCell id="xtpNrOkgLzYpHderiMOa-33" value="" style="group" vertex="1" connectable="0" parent="1">
          <mxGeometry x="56" y="256" width="150" height="35" as="geometry" />
        </mxCell>
        <mxCell id="xtpNrOkgLzYpHderiMOa-34" value="" style="group;container=1;" vertex="1" connectable="0" parent="xtpNrOkgLzYpHderiMOa-33">
          <mxGeometry width="150" height="35" as="geometry" />
        </mxCell>
        <mxCell id="xtpNrOkgLzYpHderiMOa-35" value="" style="group;strokeWidth=2;" vertex="1" connectable="0" parent="xtpNrOkgLzYpHderiMOa-34">
          <mxGeometry width="150" height="35" as="geometry" />
        </mxCell>
        <mxCell id="xtpNrOkgLzYpHderiMOa-36" value="" style="rounded=1;whiteSpace=wrap;html=1;fillColor=default;strokeColor=#CCCCCC;" vertex="1" parent="xtpNrOkgLzYpHderiMOa-35">
          <mxGeometry x="-5" width="160" height="45" as="geometry" />
        </mxCell>
        <mxCell id="xtpNrOkgLzYpHderiMOa-39" value="" style="sketch=0;html=1;dashed=0;whitespace=wrap;fillColor=#2875E2;strokeColor=#ffffff;points=[[0.005,0.63,0],[0.1,0.2,0],[0.9,0.2,0],[0.5,0,0],[0.995,0.63,0],[0.72,0.99,0],[0.5,1,0],[0.28,0.99,0]];shape=mxgraph.kubernetes.icon;prIcon=api;fontFamily=Helvetica;fontColor=#000000;" vertex="1" parent="xtpNrOkgLzYpHderiMOa-35">
          <mxGeometry x="12.000000000000007" y="10" width="26.04" height="25" as="geometry" />
        </mxCell>
        <mxCell id="xtpNrOkgLzYpHderiMOa-38" value="&lt;b&gt;&lt;font color=&quot;#333333&quot;&gt;kube-api server&lt;/font&gt;&lt;/b&gt;" style="text;html=1;align=center;verticalAlign=middle;resizable=0;points=[];autosize=1;strokeColor=none;fillColor=none;fontColor=#006600;" vertex="1" parent="xtpNrOkgLzYpHderiMOa-35">
          <mxGeometry x="43" y="13.5" width="99" height="18" as="geometry" />
        </mxCell>
        <mxCell id="xtpNrOkgLzYpHderiMOa-44" value="" style="group;strokeWidth=2;" vertex="1" connectable="0" parent="1">
          <mxGeometry x="388" y="291" width="150" height="71" as="geometry" />
        </mxCell>
        <mxCell id="xtpNrOkgLzYpHderiMOa-45" value="" style="rounded=1;whiteSpace=wrap;html=1;fillColor=default;strokeColor=#CCCCCC;" vertex="1" parent="xtpNrOkgLzYpHderiMOa-44">
          <mxGeometry x="-5" width="160" height="45" as="geometry" />
        </mxCell>
        <mxCell id="xtpNrOkgLzYpHderiMOa-47" value="&lt;b&gt;&lt;font color=&quot;#333333&quot;&gt;Agent Discoverer&lt;/font&gt;&lt;/b&gt;" style="text;html=1;align=center;verticalAlign=middle;resizable=0;points=[];autosize=1;strokeColor=none;fillColor=none;fontColor=#006600;" vertex="1" parent="xtpNrOkgLzYpHderiMOa-44">
          <mxGeometry x="39" y="13.5" width="109" height="18" as="geometry" />
        </mxCell>
        <mxCell id="xtpNrOkgLzYpHderiMOa-48" value="" style="sketch=0;html=1;dashed=0;whitespace=wrap;fillColor=#2875E2;strokeColor=#ffffff;points=[[0.005,0.63,0],[0.1,0.2,0],[0.9,0.2,0],[0.5,0,0],[0.995,0.63,0],[0.72,0.99,0],[0.5,1,0],[0.28,0.99,0]];shape=mxgraph.kubernetes.icon;prIcon=pod;fontFamily=Helvetica;fontColor=#333333;" vertex="1" parent="xtpNrOkgLzYpHderiMOa-44">
          <mxGeometry x="11" y="8.5" width="29.17" height="28" as="geometry" />
        </mxCell>
        <mxCell id="xtpNrOkgLzYpHderiMOa-52" value="" style="group;strokeWidth=2;" vertex="1" connectable="0" parent="1">
          <mxGeometry x="386" y="390" width="150" height="71" as="geometry" />
        </mxCell>
        <mxCell id="xtpNrOkgLzYpHderiMOa-53" value="" style="rounded=1;whiteSpace=wrap;html=1;fillColor=default;strokeColor=#CCCCCC;" vertex="1" parent="xtpNrOkgLzYpHderiMOa-52">
          <mxGeometry x="-5" width="160" height="45" as="geometry" />
        </mxCell>
        <mxCell id="xtpNrOkgLzYpHderiMOa-54" value="&lt;b&gt;&lt;font color=&quot;#333333&quot;&gt;Agent discoverer&lt;/font&gt;&lt;/b&gt;" style="text;html=1;align=center;verticalAlign=middle;resizable=0;points=[];autosize=1;strokeColor=none;fillColor=none;fontColor=#006600;" vertex="1" parent="xtpNrOkgLzYpHderiMOa-52">
          <mxGeometry x="39" y="13.5" width="108" height="18" as="geometry" />
        </mxCell>
        <mxCell id="xtpNrOkgLzYpHderiMOa-55" value="" style="sketch=0;html=1;dashed=0;whitespace=wrap;fillColor=#2875E2;strokeColor=#ffffff;points=[[0.005,0.63,0],[0.1,0.2,0],[0.9,0.2,0],[0.5,0,0],[0.995,0.63,0],[0.72,0.99,0],[0.5,1,0],[0.28,0.99,0]];shape=mxgraph.kubernetes.icon;prIcon=pod;fontFamily=Helvetica;fontColor=#333333;" vertex="1" parent="xtpNrOkgLzYpHderiMOa-52">
          <mxGeometry x="11" y="8.5" width="29.17" height="28" as="geometry" />
        </mxCell>
        <mxCell id="xtpNrOkgLzYpHderiMOa-56" value="" style="group;strokeWidth=2;" vertex="1" connectable="0" parent="1">
          <mxGeometry x="388" y="480" width="184" height="71" as="geometry" />
        </mxCell>
        <mxCell id="xtpNrOkgLzYpHderiMOa-57" value="" style="rounded=1;whiteSpace=wrap;html=1;fillColor=default;strokeColor=#CCCCCC;" vertex="1" parent="xtpNrOkgLzYpHderiMOa-56">
          <mxGeometry x="-5.974025974025974" width="191.16883116883116" height="45" as="geometry" />
        </mxCell>
        <mxCell id="xtpNrOkgLzYpHderiMOa-58" value="&lt;b&gt;&lt;font color=&quot;#333333&quot;&gt;Vald Index Manager&lt;/font&gt;&lt;/b&gt;" style="text;html=1;align=center;verticalAlign=middle;resizable=0;points=[];autosize=1;strokeColor=none;fillColor=none;fontColor=#006600;" vertex="1" parent="xtpNrOkgLzYpHderiMOa-56">
          <mxGeometry x="38.23376623376624" y="13.5" width="122" height="18" as="geometry" />
        </mxCell>
        <mxCell id="xtpNrOkgLzYpHderiMOa-59" value="" style="sketch=0;html=1;dashed=0;whitespace=wrap;fillColor=#2875E2;strokeColor=#ffffff;points=[[0.005,0.63,0],[0.1,0.2,0],[0.9,0.2,0],[0.5,0,0],[0.995,0.63,0],[0.72,0.99,0],[0.5,1,0],[0.28,0.99,0]];shape=mxgraph.kubernetes.icon;prIcon=pod;fontFamily=Helvetica;fontColor=#333333;" vertex="1" parent="xtpNrOkgLzYpHderiMOa-56">
          <mxGeometry x="13.142857142857144" y="8.5" width="34.852467532467536" height="28" as="geometry" />
        </mxCell>
        <mxCell id="xtpNrOkgLzYpHderiMOa-60" style="edgeStyle=orthogonalEdgeStyle;rounded=0;orthogonalLoop=1;jettySize=auto;html=1;exitX=1;exitY=0.5;exitDx=0;exitDy=0;labelBackgroundColor=#F8F8F8;fontFamily=Helvetica;fontColor=#333333;endSize=0;strokeColor=#006633;strokeWidth=2;" edge="1" parent="1" source="xtpNrOkgLzYpHderiMOa-36" target="xtpNrOkgLzYpHderiMOa-45">
          <mxGeometry relative="1" as="geometry" />
        </mxCell>
      </root>
    </mxGraphModel>
  </diagram>
</mxfile>
